<svg fill="none" height="24" viewBox="0 0 124 24" width="124" xmlns="http://www.w3.org/2000/svg"><path d="m5.05831 18.0215v-1.2133h.94095c.44571 0 .83365-.0826 1.16381-.2477.33016-.165.49524-.6025.49524-1.3123v-3.9124l-4.58096-8.4686c-.24761-.47873-.48698-.81714-.71809-1.01524-.23111-.19809-.57778-.29714-1.04-.29714h-.321905v-1.213336h7.725715v1.213336h-.59429c-.47873 0-.82539.09079-1.04.27238-.19809.18159-.29714.42095-.29714.71809 0 .21461.04127.44572.12381.69334.08254.23111.17333.44571.27238.64381l1.83238 3.51619c.26413.51174.48699.99047.66857 1.43619.18159.44571.33842.85841.47052 1.23808.165-.39618.3714-.85015.619-1.36189.2476-.51175.5118-1.04.7924-1.58476l1.4857-2.92191c.1651-.33016.2724-.61905.3219-.86667.066-.24761.0991-.45396.0991-.61904 0-.77588-.5283-1.16381-1.5848-1.16381h-.6191v-1.213336h6.3143v1.213336h-.3962c-.3961 0-.7263.13206-.9904.39619-.2477.26413-.5696.77587-.9657 1.53524l-4.1848 7.87425v3.8134c0 .7428.1568 1.205.4705 1.3866.3301.1651.7181.2477 1.1638.2477h.9657v1.2133zm18.14259.2476c-1.8985 0-3.4007-.5695-4.5067-1.7086-1.0895-1.1555-1.6343-2.8971-1.6343-5.2247 0-2.31114.52-4.03622 1.56-5.17527 1.0565-1.13905 2.6083-1.70857 4.6552-1.70857 1.915 0 3.4172.56952 4.5067 1.70857s1.6343 2.86413 1.6343 5.17527c0 2.3276-.5283 4.0692-1.5848 5.2247-1.04 1.1391-2.5835 1.7086-4.6304 1.7086zm.0495-1.4609c1.0565 0 1.7993-.4623 2.2285-1.3867.4293-.9245.6439-2.2864.6439-4.0857 0-1.79939-.2229-3.14479-.6686-4.03622-.4292-.90794-1.1721-1.36191-2.2286-1.36191s-1.7994.45397-2.2286 1.36191c-.4292.89143-.6438 2.23683-.6438 4.03622 0 1.7993.2146 3.1612.6438 4.0857.4458.9244 1.1969 1.3867 2.2534 1.3867zm13.9318 1.4609c-1.3041 0-2.3028-.3879-2.9962-1.1638-.6933-.7924-1.04-2.0305-1.04-3.7143v-5.69523c0-.72635-.165-1.19683-.4952-1.41143-.3136-.2146-.7594-.3219-1.3371-.3219h-.0496v-1.21334h5.101v8.1467c0 1.073.1486 1.9231.4457 2.5504.2971.6108.8667.9162 1.7086.9162.8914 0 1.5435-.3466 1.9562-1.04.4127-.7098.619-1.6508.619-2.8228v-4.87812c0-.74285-.1898-1.20508-.5695-1.38666-.3632-.18159-.8006-.27238-1.3124-.27238h-.0743v-1.21334h5.1753v10.4743c0 .7098.1733 1.1555.52 1.3371.3466.1651.7758.2477 1.2876.2477h.1486v1.2133h-4.5562l-.4705-1.8572h-.1238c-.4953.8915-1.0813 1.4692-1.7581 1.7334-.6603.2476-1.3867.3714-2.1791.3714zm10.3078-.2476v-1.2133h.0742c.5613 0 1.0235-.0991 1.3867-.2972.3797-.2146.5695-.7098.5695-1.4857v-7.37905c0-.72635-.1816-1.18858-.5447-1.38667-.3467-.1981-.7924-.29714-1.3372-.29714h-.0743v-1.21334h4.5562l.4705 2.12953h.1238c.3302-.74286.7264-1.32889 1.1886-1.7581.4787-.4292 1.2381-.64381 2.2781-.64381.9409 0 1.6343.16508 2.08.49524.4622.33016.6933.80889.6933 1.43619 0 .66032-.2393 1.18857-.7181 1.58476-.4787.37969-1.1803.56953-2.1047.56953 0-.67683-.0908-1.18032-.2724-1.51048s-.5035-.49524-.9657-.49524c-.4457 0-.8089.16508-1.0896.49524-.2806.31365-.5034.7181-.6685 1.21333-.1486.47873-.2559.97397-.3219 1.48572-.0496.49519-.0743.91619-.0743 1.26289v4.1352c0 .7264.1733 1.1886.52 1.3867.3632.1816.8006.2724 1.3124.2724h.7676v1.2133zm19.0591 0v-1.2133h.7676c.4292 0 .7924-.0908 1.0895-.2724.3137-.1981.4705-.6603.4705-1.3867v-11.93524c0-.72634-.1568-1.18031-.4705-1.3619-.2971-.19809-.6603-.29714-1.0895-.29714h-.7676v-1.213336h8.0228v1.213336h-.7676c-.4127 0-.7759.09079-1.0895.27238-.2971.18159-.4457.61079-.4457 1.28762v13.49528h4.7047c.6273 0 1.0978-.2064 1.4115-.6191.3301-.4127.5612-.9327.6933-1.56l.3219-1.8571h1.3619l-.1733 5.4476zm22.4739.2476c-1.8984 0-3.4006-.5695-4.5066-1.7086-1.0896-1.1555-1.6343-2.8971-1.6343-5.2247 0-2.31114.52-4.03622 1.56-5.17527 1.0565-1.13905 2.6082-1.70857 4.6552-1.70857 1.9149 0 3.4172.56952 4.5067 1.70857s1.6343 2.86413 1.6343 5.17527c0 2.3276-.5283 4.0692-1.5848 5.2247-1.04 1.1391-2.5835 1.7086-4.6305 1.7086zm.0496-1.4609c1.0565 0 1.7993-.4623 2.2285-1.3867.4292-.9245.6438-2.2864.6438-4.0857 0-1.79939-.2228-3.14479-.6685-4.03622-.4292-.90794-1.1721-1.36191-2.2286-1.36191s-1.7994.45397-2.2286 1.36191c-.4292.89143-.6438 2.23683-.6438 4.03622 0 1.7993.2146 3.1612.6438 4.0857.4457.9244 1.1968 1.3867 2.2534 1.3867zm13.1894 7.1561c-1.866 0-3.2608-.3054-4.1852-.9161-.9079-.5943-1.3619-1.461-1.3619-2.6 0-.908.2971-1.6096.8914-2.1048.5943-.4787 1.3784-.7676 2.3524-.8667-.3962-.1651-.7676-.4209-1.1143-.7676s-.52-.8089-.52-1.3867c0-.5117.1733-.9657.52-1.3619.3632-.3962.8502-.7676 1.4606-1.1143-.726-.2806-1.312-.7511-1.7577-1.4114s-.6686-1.46093-.6686-2.40189c0-1.43619.4044-2.55873 1.2133-3.36762.8254-.80889 2.08-1.21333 3.764-1.21333.594 0 1.147.08254 1.659.24762.512.14857.933.33016 1.263.54476.346-.39619.718-.71809 1.114-.96571.413-.26413.875-.39619 1.387-.39619.561 0 .974.13206 1.238.39619.28.26412.421.58603.421.96571 0 .36318-.116.68508-.347.96572-.231.26412-.644.39619-1.238.39619 0-.28064-.083-.51175-.248-.69334-.165-.18158-.379-.27238-.643-.27238-.347 0-.653.0908-.917.27238.314.36318.578.80889.793 1.33715.214.52825.322 1.11428.322 1.75809 0 1.23805-.388 2.26985-1.164 3.09525-.776.8089-1.989 1.2133-3.64 1.2133-.182 0-.421-.0082-.718-.0247-.281-.0331-.504-.0578-.669-.0743-.264.132-.495.3136-.693.5447s-.297.5118-.297.8419c0 .5613.437.8419 1.312.8419h2.922c1.585 0 2.732.3385 3.442 1.0153s1.065 1.5847 1.065 2.7238c0 1.4857-.57 2.6495-1.709 3.4914-1.139.8584-2.889 1.2876-5.249 1.2876zm.52-12.0095c.726 0 1.221-.2559 1.485-.7676s.396-1.24635.396-2.20381c0-.99048-.14-1.7581-.42-2.30286-.265-.56127-.76-.8419-1.486-.8419-.694 0-1.181.28889-1.461.86666-.281.56127-.421 1.32889-.421 2.30286 0 .94095.14 1.66735.421 2.17905.297.5117.792.7676 1.486.7676zm-.471 10.6229c1.568 0 2.674-.2394 3.318-.7181.644-.4622.966-1.1143.966-1.9562 0-.6108-.19-1.0318-.57-1.2629-.363-.2146-.908-.3219-1.634-.3219h-2.699c-.38 0-.759.0496-1.139.1486-.363.099-.6686.2971-.9162.5943-.2311.2971-.3467.7346-.3467 1.3124 0 .6933.2311 1.2298.6934 1.6095.4785.3962 1.2545.5943 2.3275.5943zm15.198-4.3086c-1.899 0-3.401-.5695-4.507-1.7086-1.089-1.1555-1.634-2.8971-1.634-5.2247 0-2.31114.52-4.03622 1.56-5.17527 1.056-1.13905 2.608-1.70857 4.655-1.70857 1.915 0 3.417.56952 4.507 1.70857 1.089 1.13905 1.634 2.86413 1.634 5.17527 0 2.3276-.528 4.0692-1.585 5.2247-1.04 1.1391-2.583 1.7086-4.63 1.7086zm.049-1.4609c1.057 0 1.8-.4623 2.229-1.3867.429-.9245.644-2.2864.644-4.0857 0-1.79939-.223-3.14479-.669-4.03622-.429-.90794-1.172-1.36191-2.228-1.36191-1.057 0-1.8.45397-2.229 1.36191-.429.89143-.644 2.23683-.644 4.03622 0 1.7993.215 3.1612.644 4.0857.446.9244 1.197 1.3867 2.253 1.3867z" fill="#333"/></svg>